<svg width="80" height="35" viewBox="0 0 80 35" fill="none" xmlns="http://www.w3.org/2000/svg">
<path d="M0 17.1667C0 16.5223 0.522334 16 1.16667 16H8.54762C9.19195 16 9.71429 16.5223 9.71429 17.1667C9.71429 17.811 9.19195 18.3333 8.54762 18.3333H1.16667C0.522333 18.3333 0 17.811 0 17.1667Z" fill="white"/>
<path d="M11.7144 17.1667C11.7144 16.5223 12.2367 16 12.881 16H20.262C20.9063 16 21.4286 16.5223 21.4286 17.1667C21.4286 17.811 20.9063 18.3333 20.262 18.3333H12.881C12.2367 18.3333 11.7144 17.811 11.7144 17.1667Z" fill="white" fill-opacity="0.4"/>
<path d="M23.4285 17.1667C23.4285 16.5223 23.9508 16 24.5951 16H31.9761C32.6204 16 33.1428 16.5223 33.1428 17.1667C33.1428 17.811 32.6204 18.3333 31.9761 18.3333H24.5951C23.9508 18.3333 23.4285 17.811 23.4285 17.1667Z" fill="white" fill-opacity="0.15"/>
</svg>
