<svg width="80" height="35" viewBox="0 0 80 35" fill="none" xmlns="http://www.w3.org/2000/svg">
<path d="M0 17.8334C0 17.189 0.522335 16.6667 1.16667 16.6667H10.5C11.1443 16.6667 11.6667 17.189 11.6667 17.8334C11.6667 18.4777 11.1443 19 10.5 19H1.16667C0.522336 19 0 18.4777 0 17.8334Z" fill="white"/>
<path d="M13.6667 17.8334C13.6667 17.189 14.1891 16.6667 14.8334 16.6667H24.1667C24.8111 16.6667 25.3334 17.189 25.3334 17.8334C25.3334 18.4777 24.8111 19 24.1667 19H14.8334C14.1891 19 13.6667 18.4777 13.6667 17.8334Z" fill="white" fill-opacity="0.4"/>
<path d="M27.3333 17.8334C27.3333 17.189 27.8556 16.6667 28.4999 16.6667H37.8332C38.4776 16.6667 38.9999 17.189 38.9999 17.8334C38.9999 18.4777 38.4776 19 37.8333 19H28.4999C27.8556 19 27.3333 18.4777 27.3333 17.8334Z" fill="white" fill-opacity="0.15"/>
</svg>
