<svg width="80" height="35" viewBox="0 0 80 35" fill="none" xmlns="http://www.w3.org/2000/svg">
<path d="M0 17.1667C0 16.5223 0.522335 16 1.16667 16H24.1667C24.811 16 25.3333 16.5223 25.3333 17.1667C25.3333 17.811 24.811 18.3333 24.1667 18.3333H1.16667C0.522335 18.3333 0 17.811 0 17.1667Z" fill="white"/>
<path d="M27.3333 17.1667C27.3333 16.5223 27.8556 16 28.4999 16H51.4999C52.1442 16 52.6666 16.5223 52.6666 17.1667C52.6666 17.811 52.1442 18.3333 51.4999 18.3333H28.4999C27.8556 18.3333 27.3333 17.811 27.3333 17.1667Z" fill="white" fill-opacity="0.4"/>
<path d="M54.6667 17.1667C54.6667 16.5223 55.1891 16 55.8334 16H78.8334C79.4777 16 80.0001 16.5223 80.0001 17.1667C80.0001 17.811 79.4777 18.3333 78.8334 18.3333H55.8334C55.1891 18.3333 54.6667 17.811 54.6667 17.1667Z" fill="white" fill-opacity="0.15"/>
</svg>
