<svg width="28" height="28" viewBox="0 0 28 28" fill="none" xmlns="http://www.w3.org/2000/svg">
<path d="M18.3852 15.5391C18.2995 15.6143 18.2358 15.7114 18.2009 15.8199C18.1659 15.9284 18.161 16.0444 18.1867 16.1555L19.243 20.7289C19.2709 20.8484 19.263 20.9734 19.2204 21.0884C19.1777 21.2034 19.1022 21.3033 19.0032 21.3757C18.9041 21.4481 18.786 21.4897 18.6634 21.4955C18.5409 21.5012 18.4194 21.4707 18.3141 21.4078L14.3219 18.9859C14.2249 18.927 14.1135 18.8958 14 18.8958C13.8865 18.8958 13.7751 18.927 13.6781 18.9859L9.68594 21.4078C9.58061 21.4707 9.4591 21.5012 9.33657 21.4955C9.21403 21.4897 9.09588 21.4481 8.99685 21.3757C8.89781 21.3033 8.82226 21.2034 8.77962 21.0884C8.73698 20.9734 8.72912 20.8484 8.75704 20.7289L9.81329 16.1555C9.83896 16.0444 9.83407 15.9284 9.79913 15.8199C9.76419 15.7114 9.70051 15.6143 9.61485 15.5391L6.09063 12.4648C5.99641 12.3848 5.92806 12.2785 5.89424 12.1596C5.86041 12.0407 5.86262 11.9144 5.90059 11.7967C5.93856 11.679 6.01059 11.5752 6.10755 11.4985C6.20452 11.4218 6.32206 11.3755 6.44532 11.3656L11.0906 10.9641C11.204 10.954 11.3124 10.9131 11.4042 10.8459C11.4961 10.7788 11.5678 10.6878 11.6117 10.5828L13.4266 6.25781C13.475 6.14599 13.5552 6.05079 13.657 5.98391C13.7589 5.91703 13.8781 5.8814 14 5.8814C14.1219 5.8814 14.2411 5.91703 14.343 5.98391C14.4449 6.05079 14.525 6.14599 14.5734 6.25781L16.3883 10.5828C16.4322 10.6878 16.504 10.7788 16.5958 10.8459C16.6876 10.9131 16.796 10.954 16.9094 10.9641L21.5547 11.3656C21.6779 11.3755 21.7955 11.4218 21.8925 11.4985C21.9894 11.5752 22.0615 11.679 22.0994 11.7967C22.1374 11.9144 22.1396 12.0407 22.1058 12.1596C22.0719 12.2785 22.0036 12.3848 21.9094 12.4648L18.3852 15.5391Z" fill="black" fill-opacity="0.04"/>
<path d="M22.6875 11.6008C22.6118 11.3675 22.4691 11.1616 22.2773 11.0088C22.0855 10.856 21.8529 10.763 21.6086 10.7414L16.9687 10.3414L15.15 6.01641C15.0553 5.78947 14.8956 5.59562 14.6909 5.45926C14.4863 5.32291 14.2459 5.25016 14 5.25016C13.7541 5.25016 13.5137 5.32291 13.309 5.45926C13.1044 5.59562 12.9447 5.78947 12.85 6.01641L11.0367 10.3414L6.39139 10.7438C6.14611 10.7644 5.91237 10.8569 5.71949 11.0099C5.5266 11.1628 5.38316 11.3692 5.30715 11.6034C5.23114 11.8375 5.22595 12.0888 5.29222 12.3259C5.35849 12.563 5.49327 12.7752 5.67967 12.9359L9.20389 16.0156L8.14764 20.5891C8.09179 20.8284 8.10773 21.0789 8.19346 21.3092C8.27919 21.5395 8.43092 21.7395 8.62967 21.884C8.82842 22.0286 9.06537 22.1113 9.3109 22.122C9.55644 22.1326 9.79965 22.0706 10.0101 21.9438L13.9945 19.5219L17.9875 21.9438C18.198 22.0706 18.4412 22.1326 18.6867 22.122C18.9323 22.1113 19.1692 22.0286 19.368 21.884C19.5667 21.7395 19.7184 21.5395 19.8042 21.3092C19.8899 21.0789 19.9058 20.8284 19.85 20.5891L18.7945 16.0109L22.318 12.9359C22.5043 12.7746 22.6388 12.5618 22.7046 12.3242C22.7704 12.0867 22.7644 11.835 22.6875 11.6008ZM21.4984 11.9914L17.975 15.0664C17.8035 15.2156 17.6759 15.4087 17.606 15.6249C17.5361 15.8412 17.5264 16.0724 17.5781 16.2938L18.6367 20.875L14.6469 18.4531C14.4522 18.3346 14.2287 18.2719 14.0008 18.2719C13.7729 18.2719 13.5493 18.3346 13.3547 18.4531L9.3703 20.875L10.4219 16.2969C10.4735 16.0755 10.4639 15.8443 10.394 15.6281C10.324 15.4118 10.1965 15.2187 10.025 15.0695L6.49999 11.9961C6.4997 11.9938 6.4997 11.9914 6.49999 11.9891L11.1437 11.5875C11.3705 11.5675 11.5874 11.486 11.7712 11.3518C11.955 11.2175 12.0987 11.0357 12.1867 10.8258L14 6.50625L15.8125 10.8258C15.9005 11.0357 16.0442 11.2175 16.228 11.3518C16.4118 11.486 16.6287 11.5675 16.8555 11.5875L21.5 11.9891C21.5 11.9891 21.5 11.9938 21.5 11.9945L21.4984 11.9914Z" fill="black"/>
</svg>
