<svg width="80" height="35" viewBox="0 0 80 35" fill="none" xmlns="http://www.w3.org/2000/svg">
<path d="M0 17.8334C0 17.189 0.522335 16.6667 1.16667 16.6667H13.2333C13.8777 16.6667 14.4 17.189 14.4 17.8334C14.4 18.4777 13.8777 19 13.2333 19H1.16667C0.522335 19 0 18.4777 0 17.8334Z" fill="white"/>
<path d="M16.3999 17.8334C16.3999 17.189 16.9222 16.6667 17.5666 16.6667H29.6332C30.2776 16.6667 30.7999 17.189 30.7999 17.8334C30.7999 18.4777 30.2776 19 29.6332 19H17.5666C16.9222 19 16.3999 18.4777 16.3999 17.8334Z" fill="white" fill-opacity="0.4"/>
<path d="M32.8 17.8334C32.8 17.189 33.3224 16.6667 33.9667 16.6667H46.0334C46.6777 16.6667 47.2 17.189 47.2 17.8334C47.2 18.4777 46.6777 19 46.0334 19H33.9667C33.3224 19 32.8 18.4777 32.8 17.8334Z" fill="white" fill-opacity="0.15"/>
</svg>
